<svg xmlns="http://www.w3.org/2000/svg" version="1.1" xmlns:xlink="http://www.w3.org/1999/xlink" xmlns:svgjs="http://svgjs.com/svgjs" width="1440" height="300" preserveAspectRatio="none" viewBox="0 0 1440 300"><g mask="url(&quot;#SvgjsMask1021&quot;)" fill="none"><path d="M -439.61183170318293,74 C -343.61,96.8 -151.61,188.6 40.38816829681707,188 C 232.39,187.4 328.39,76.6 520.3881682968171,71 C 712.39,65.4 808.39,156.2 1000.3881682968171,160 C 1192.39,163.8 1392.47,68.8 1480.3881682968172,90 C 1568.31,111.2 1448.08,230.8 1440,266" stroke="rgba(102, 155, 191, 0.3)" stroke-width="2"></path><path d="M -543.3898321044941,252 C -447.39,216.2 -255.39,84.6 -63.38983210449406,73 C 128.61,61.4 224.61,184.2 416.6101678955059,194 C 608.61,203.8 704.61,109.2 896.6101678955059,122 C 1088.61,134.8 1267.93,268.8 1376.610167895506,258 C 1485.29,247.2 1427.32,106 1440,68" stroke="rgba(102, 155, 191, 0.3)" stroke-width="2"></path><path d="M -807.8431845128766,119 C -711.84,132.6 -519.84,203 -327.8431845128767,187 C -135.84,171 -39.84,25.4 152.1568154871233,39 C 344.16,52.6 440.16,254.2 632.1568154871234,255 C 824.16,255.8 950.59,62.8 1112.1568154871234,43 C 1273.73,23.2 1374.43,133.4 1440,156" stroke="rgba(102, 155, 191, 0.3)" stroke-width="2"></path><path d="M -48.274851096603186,125 C 47.73,134.6 239.73,185.4 431.7251489033968,173 C 623.73,160.6 719.73,49.6 911.7251489033968,63 C 1103.73,76.4 1199.73,238.6 1391.7251489033968,240 C 1583.73,241.4 1862.07,86.8 1871.7251489033968,70 C 1881.38,53.2 1526.35,138.8 1440,156" stroke="rgba(102, 155, 191, 0.3)" stroke-width="2"></path><path d="M -153.8450152686588,72 C -57.85,100.4 134.15,220.4 326.1549847313412,214 C 518.15,207.6 614.15,33.8 806.1549847313412,40 C 998.15,46.2 1094.15,230.4 1286.1549847313413,245 C 1478.15,259.6 1735.39,130.2 1766.1549847313413,113 C 1796.92,95.8 1505.23,149.8 1440,159" stroke="rgba(102, 155, 191, 0.3)" stroke-width="2"></path><path d="M -110.5540536684656,181 C -14.55,162.4 177.45,77.4 369.4459463315344,88 C 561.45,98.6 657.45,233.6 849.4459463315344,234 C 1041.45,234.4 1137.45,86.6 1329.4459463315343,90 C 1521.45,93.4 1787.34,260 1809.4459463315343,251 C 1831.56,242 1513.89,86.2 1440,45" stroke="rgba(102, 155, 191, 0.3)" stroke-width="2"></path><path d="M -405.952735320639,166 C -309.95,149 -117.95,77.2 74.047264679361,81 C 266.05,84.8 362.05,182 554.047264679361,185 C 746.05,188 842.05,87 1034.047264679361,96 C 1226.05,105 1432.86,221 1514.047264679361,230 C 1595.24,239 1454.81,158.8 1440,141" stroke="rgba(102, 155, 191, 0.3)" stroke-width="2"></path><path d="M -695.757816309433,253 C -599.76,226.4 -407.76,137.4 -215.75781630943297,120 C -23.76,102.6 72.24,160.8 264.242183690567,166 C 456.24,171.2 552.24,143.6 744.242183690567,146 C 936.24,148.4 1085.09,194.2 1224.2421836905671,178 C 1363.39,161.8 1396.85,87.6 1440,65" stroke="rgba(102, 155, 191, 0.3)" stroke-width="2"></path><path d="M -957.1725309322928,110 C -861.17,128.6 -669.17,210.8 -477.17253093229283,203 C -285.17,195.2 -189.17,61.6 2.8274690677071703,71 C 194.83,80.4 290.83,252 482.82746906770717,250 C 674.83,248 771.39,80.8 962.8274690677072,61 C 1154.26,41.2 1344.57,133 1440,151" stroke="rgba(102, 155, 191, 0.3)" stroke-width="2"></path></g><defs><mask id="SvgjsMask1021"><rect width="1440" height="300" fill="#ffffff"></rect></mask></defs></svg>