<svg xmlns="http://www.w3.org/2000/svg" version="1.1" xmlns:xlink="http://www.w3.org/1999/xlink" xmlns:svgjs="http://svgjs.com/svgjs" width="1440" height="560" preserveAspectRatio="none" viewBox="0 0 1440 560"><g mask="url(&quot;#SvgjsMask1015&quot;)" fill="none"><path d="M -944.0631489398241,350 C -848.06,297.2 -656.06,88.8 -464.06314893982415,86 C -272.06,83.2 -176.06,326 15.936851060175854,336 C 207.94,346 303.94,116.8 495.93685106017585,136 C 687.94,155.2 787.12,424 975.9368510601759,432 C 1164.75,440 1347.19,227.2 1440,176" stroke="rgba(102, 155, 191, 1)" stroke-width="2"></path><path d="M -368.70700707727826,178 C -272.71,239.2 -80.71,490.2 111.29299292272172,484 C 303.29,477.8 399.29,178.4 591.2929929227217,147 C 783.29,115.6 879.29,314.2 1071.2929929227216,327 C 1263.29,339.8 1477.55,195 1551.2929929227216,211 C 1625.03,227 1462.26,367.8 1440,407" stroke="rgba(102, 155, 191, 1)" stroke-width="2"></path><path d="M -43.019754465042865,122 C 52.98,183.8 244.98,412.6 436.98024553495713,431 C 628.98,449.4 724.98,215.6 916.9802455349571,214 C 1108.98,212.4 1204.98,412 1396.9802455349572,423 C 1588.98,434 1868.38,255.2 1876.9802455349572,269 C 1885.58,282.8 1527.4,447.4 1440,492" stroke="rgba(102, 155, 191, 1)" stroke-width="2"></path><path d="M -958.5651508061715,473 C -862.57,425.2 -670.57,236.2 -478.5651508061714,234 C -286.57,231.8 -190.57,496.8 1.4348491938285974,462 C 193.43,427.2 289.43,63 481.4348491938286,60 C 673.43,57 769.72,406.2 961.4348491938285,447 C 1153.15,487.8 1344.29,300.6 1440,264" stroke="rgba(102, 155, 191, 1)" stroke-width="2"></path><path d="M -783.2293813370836,110 C -687.23,146.6 -495.23,287.6 -303.22938133708357,293 C -111.23,298.4 -15.23,126 176.77061866291643,137 C 368.77,148 464.77,346.4 656.7706186629164,348 C 848.77,349.6 980.12,115.2 1136.7706186629164,145 C 1293.42,174.8 1379.35,426.6 1440,497" stroke="rgba(102, 155, 191, 1)" stroke-width="2"></path><path d="M -12.21938896356312,100 C 83.78,148.2 275.78,344.6 467.7806110364369,341 C 659.78,337.4 755.78,87.6 947.7806110364369,82 C 1139.78,76.4 1235.78,299.4 1427.7806110364368,313 C 1619.78,326.6 1905.34,129.8 1907.7806110364368,150 C 1910.22,170.2 1533.56,361.2 1440,414" stroke="rgba(102, 155, 191, 1)" stroke-width="2"></path><path d="M -411.88202758894687,153 C -315.88,206 -123.88,402 68.11797241105313,418 C 260.12,434 356.12,229.8 548.1179724110532,233 C 740.12,236.2 836.12,449.4 1028.1179724110532,434 C 1220.12,418.6 1425.74,161.8 1508.1179724110532,156 C 1590.49,150.2 1453.62,355.2 1440,405" stroke="rgba(102, 155, 191, 1)" stroke-width="2"></path><path d="M -176.80254901632424,458 C -80.8,393.4 111.2,145 303.19745098367576,135 C 495.2,125 591.2,419.6 783.1974509836757,408 C 975.2,396.4 1071.2,86.6 1263.1974509836757,77 C 1455.2,67.4 1707.84,320.8 1743.1974509836757,360 C 1778.56,399.2 1500.64,290.4 1440,273" stroke="rgba(102, 155, 191, 1)" stroke-width="2"></path><path d="M -82.33784767105965,247 C 13.66,263.8 205.66,328.6 397.66215232894035,331 C 589.66,333.4 685.66,241.2 877.6621523289404,259 C 1069.66,276.8 1165.66,447.2 1357.6621523289405,420 C 1549.66,392.8 1821.19,120.8 1837.6621523289405,123 C 1854.13,125.2 1519.53,369.4 1440,431" stroke="rgba(102, 155, 191, 1)" stroke-width="2"></path></g><defs><mask id="SvgjsMask1015"><rect width="1440" height="560" fill="#ffffff"></rect></mask></defs></svg>