<svg xmlns="http://www.w3.org/2000/svg" version="1.1" xmlns:xlink="http://www.w3.org/1999/xlink" xmlns:svgjs="http://svgjs.com/svgjs" width="100%" height="200" preserveAspectRatio="none" viewBox="0 0 1440 200"><g mask="url(&quot;#SvgjsMask1004&quot;)" fill="none"><path d="M -194.97660219835558,132 C -98.98,121.8 93.02,79.8 285.0233978016444,81 C 477.02,82.2 573.02,150 765.0233978016445,138 C 957.02,126 1053.02,25.2 1245.0233978016445,21 C 1437.02,16.8 1686.03,114.8 1725.0233978016445,117 C 1764.02,119.2 1497,49 1440,32" stroke="rgba(102, 155, 191, 0.2)" stroke-width="2"></path><path d="M -778.0984291775787,26 C -682.1,43.2 -490.1,103.2 -298.09842917757874,112 C -106.1,120.8 -10.1,66.8 181.90157082242126,70 C 373.9,73.2 469.9,129.8 661.9015708224213,128 C 853.9,126.2 986.28,55.8 1141.9015708224213,61 C 1297.52,66.2 1380.38,135.4 1440,154" stroke="rgba(102, 155, 191, 0.2)" stroke-width="2"></path><path d="M -304.34658846712074,177 C -208.35,154 -16.35,67.6 175.65341153287926,62 C 367.65,56.4 463.65,147.6 655.6534115328793,149 C 847.65,150.4 943.65,78.6 1135.6534115328793,69 C 1327.65,59.4 1554.78,108.2 1615.6534115328793,101 C 1676.52,93.8 1475.13,46.6 1440,33" stroke="rgba(102, 155, 191, 0.2)" stroke-width="2"></path><path d="M -470.8630950002269,117 C -374.86,102.4 -182.86,43.8 9.136904999773101,44 C 201.14,44.2 297.14,120.6 489.1369049997731,118 C 681.14,115.4 777.14,21 969.1369049997732,31 C 1161.14,41 1354.96,158 1449.1369049997732,168 C 1543.31,178 1441.83,98.4 1440,81" stroke="rgba(102, 155, 191, 0.2)" stroke-width="2"></path><path d="M -587.0708790584952,137 C -491.07,118.8 -299.07,43.4 -107.0708790584952,46 C 84.93,48.6 180.93,141.2 372.92912094150483,150 C 564.93,158.8 660.93,98.6 852.9291209415048,90 C 1044.93,81.4 1215.51,110.8 1332.9291209415048,107 C 1450.34,103.2 1418.59,78.2 1440,71" stroke="rgba(102, 155, 191, 0.2)" stroke-width="2"></path><path d="M -60.75978847254191,153 C 35.24,134 227.24,59.2 419.2402115274581,58 C 611.24,56.8 707.24,142 899.2402115274581,147 C 1091.24,152 1187.24,79.6 1379.240211527458,83 C 1571.24,86.4 1847.09,174.2 1859.240211527458,164 C 1871.39,153.8 1523.85,58.4 1440,32" stroke="rgba(102, 155, 191, 0.2)" stroke-width="2"></path><path d="M -813.587553105204,109 C -717.59,105.6 -525.59,92.4 -333.587553105204,92 C -141.59,91.6 -45.59,119.2 146.412446894796,107 C 338.41,94.8 434.41,29.2 626.412446894796,31 C 818.41,32.8 943.69,110.2 1106.412446894796,116 C 1269.13,121.8 1373.28,71.2 1440,60" stroke="rgba(102, 155, 191, 0.2)" stroke-width="2"></path><path d="M -252.4118753375446,171 C -156.41,154 35.59,85.2 227.5881246624554,86 C 419.59,86.8 515.59,179.4 707.5881246624554,175 C 899.59,170.6 995.59,64.4 1187.5881246624554,64 C 1379.59,63.6 1617.11,174.8 1667.5881246624554,173 C 1718.07,171.2 1485.52,78.6 1440,55" stroke="rgba(102, 155, 191, 0.2)" stroke-width="2"></path><path d="M -163.79431082713108,123 C -67.79,111.8 124.21,68.4 316.2056891728689,67 C 508.21,65.6 604.21,122.8 796.2056891728689,116 C 988.21,109.2 1084.21,20.6 1276.205689172869,33 C 1468.21,45.4 1723.45,167.4 1756.205689172869,178 C 1788.96,188.6 1503.24,104.4 1440,86" stroke="rgba(102, 155, 191, 0.2)" stroke-width="2"></path></g><defs><mask id="SvgjsMask1004"><rect width="1440" height="200" fill="#ffffff"></rect></mask></defs></svg>